<svg width="52" height="135" viewBox="0 0 52 135" fill="none" xmlns="http://www.w3.org/2000/svg">
<path d="M51.5 3L51.5 6.45133e-07L45.5 5.09316e-07L45.5 3L51.5 3ZM20.8787 133.621C22.0503 134.793 23.9497 134.793 25.1213 133.621L44.2132 114.529C45.3848 113.358 45.3848 111.458 44.2132 110.287C43.0416 109.115 41.1421 109.115 39.9706 110.287L23 127.257L6.02944 110.287C4.85786 109.115 2.95837 109.115 1.7868 110.287C0.615222 111.458 0.615222 113.358 1.7868 114.529L20.8787 133.621ZM23 67.75L23 64.75L20 64.75L20 67.75L23 67.75ZM48.5 67.75L48.5 70.75L51.5 70.75L51.5 67.75L48.5 67.75ZM20 67.75L20 131.5L26 131.5L26 67.75L20 67.75ZM45.5 3L45.5 67.75L51.5 67.75L51.5 3L45.5 3ZM48.5 64.75L23 64.75L23 70.75L48.5 70.75L48.5 64.75Z" fill="white"/>
</svg>
