<svg version="1.2" xmlns="http://www.w3.org/2000/svg" viewBox="0 0 91 97" width="91" height="97">
	<title>como-icon3-svg</title>
	<style>
		.s0 { fill: #ffffff } 
	</style>
	<path id="Layer" fill-rule="evenodd" class="s0" d="m4 21.7l38.2-20.9c1-0.6 2.1-0.9 3.3-0.9 1.2 0 2.3 0.3 3.3 0.9l38.2 20.9c1.1 0.6 2 1.5 2.6 2.5 0.7 1.1 1 2.3 1 3.6v41.4c0 1.3-0.3 2.5-1 3.6-0.6 1-1.5 1.9-2.6 2.5l-38.2 20.9c-1 0.6-2.1 0.8-3.3 0.8-1.2 0-2.3-0.2-3.3-0.8l-38.2-20.9c-1.1-0.6-2-1.5-2.6-2.5-0.7-1.1-1-2.3-1-3.6v-41.4c0-1.3 0.3-2.5 1-3.6 0.6-1 1.5-1.9 2.6-2.5zm41.5-14.8l-34.8 19.1 12.9 7 34.8-19.1zm0 38.2l34.8-19.1-14.7-8-34.8 19.1zm38.2-13.1l-34.7 19v37.2l34.7-18.9zm-76.3 37.1l34.6 19v-37.1l-13.8-7.6v15.4c0 1-0.4 1.8-1 2.5-0.7 0.6-1.6 1-2.5 1-0.9 0-1.8-0.4-2.5-1-0.6-0.7-1-1.5-1-2.5v-19.2l-13.8-7.6z"/>
</svg>