<svg version="1.2" xmlns="http://www.w3.org/2000/svg" viewBox="0 0 87 87" width="87" height="87">
	<title>como-icon2-svg</title>
	<style>
		.s0 { fill: #ffffff } 
	</style>
	<path id="Layer" fill-rule="evenodd" class="s0" d="m4.5 58.1l20.2-9.1c1.1-0.5 2.2-0.6 3.4-0.5 1.1 0.1 2.2 0.5 3.2 1.1q0.1 0.1 0.3 0.2l10.4 9c6.7-3.3 13.5-10.1 16.7-16.6l-8.9-10.6q-0.1-0.2-0.2-0.3c-0.7-1-1-2.1-1.1-3.2-0.1-1.1 0-2.3 0.5-3.3v-0.1l9.1-20.2c0.6-1.4 1.6-2.5 2.9-3.3 1.3-0.7 2.8-1 4.2-0.8 5.9 0.7 11.2 3.6 15.1 8 3.8 4.4 6 10.1 6 16 0 34.1-27.8 61.9-61.9 61.9-5.9 0-11.6-2.2-16-6-4.4-3.9-7.3-9.2-8-15.1-0.2-1.4 0.1-2.9 0.8-4.2 0.8-1.3 1.9-2.3 3.3-2.9zm19.9 21.3c14.6 0 28.5-5.8 38.8-16.2 10.4-10.3 16.2-24.2 16.2-38.8 0-4.2-1.5-8.3-4.3-11.4-2.7-3.2-6.5-5.3-10.7-5.8q0 0 0 0l-9 20.2 8.9 10.7q0.1 0.1 0.2 0.3c0.6 1 1 2.1 1.1 3.3 0.1 1.2-0.2 2.4-0.7 3.4-3.9 8-11.9 16-19.9 19.9-1.1 0.5-2.3 0.7-3.5 0.6-1.2-0.1-2.3-0.5-3.3-1.1q-0.2-0.1-0.3-0.3l-10.5-8.9-20.2 9.1q0 0 0 0c0.5 4.1 2.6 7.9 5.7 10.7 3.2 2.8 7.3 4.3 11.5 4.3z"/>
</svg>