<svg width="26" height="26" viewBox="0 0 26 26" fill="none" xmlns="http://www.w3.org/2000/svg">
<path d="M13 24.6458C6.57582 24.6458 1.35416 19.4242 1.35416 13C1.35416 6.57584 6.57582 1.35417 13 1.35417C19.4242 1.35417 24.6458 6.57584 24.6458 13C24.6458 19.4242 19.4242 24.6458 13 24.6458ZM13 2.97917C7.47499 2.97917 2.97916 7.47501 2.97916 13C2.97916 18.525 7.47499 23.0208 13 23.0208C18.525 23.0208 23.0208 18.525 23.0208 13C23.0208 7.47501 18.525 2.97917 13 2.97917Z" fill="#050662"/>
<path d="M11.4617 16.8783C11.245 16.8783 11.0392 16.7917 10.8875 16.64L7.82165 13.5742C7.50749 13.26 7.50749 12.74 7.82165 12.4258C8.13582 12.1117 8.65582 12.1117 8.96999 12.4258L11.4617 14.9175L17.03 9.34917C17.3442 9.035 17.8642 9.035 18.1783 9.34917C18.4925 9.66333 18.4925 10.1833 18.1783 10.4975L12.0358 16.64C11.8842 16.7917 11.6783 16.8783 11.4617 16.8783Z" fill="#050662"/>
</svg>
